<svg width="149" height="26" viewBox="0 0 149 26" fill="none" xmlns="http://www.w3.org/2000/svg">
<path d="M66.814 4.2227V7.1392H62.719V19.3729H59.0507V7.13364H55V4.21713H66.814V4.2227Z" fill="#7350FF"/>
<path d="M73.757 7.92941C74.4774 7.50084 75.2531 7.28934 76.0954 7.28934V11.2077H75.0481C74.0784 11.2077 73.3303 11.4136 72.7984 11.8311C72.2664 12.243 72.0004 12.9443 72.0004 13.9294V19.3728H68.3542V7.41179H72.0004V9.66596C72.4548 8.93683 73.0366 8.35798 73.757 7.92941Z" fill="#7350FF"/>
<path d="M89.4667 7.4118V19.3673H85.7983V17.2021C85.4548 17.9034 84.9505 18.46 84.2745 18.8719C83.5984 19.2838 82.8116 19.4953 81.9194 19.4953C80.5563 19.4953 79.4702 19.0389 78.6667 18.1261C77.8632 17.2133 77.4642 15.9554 77.4642 14.3524V7.4118H81.0882V13.9016C81.0882 14.7142 81.2988 15.3487 81.7199 15.7996C82.1411 16.2504 82.7063 16.473 83.4156 16.473C84.1526 16.473 84.7399 16.2393 85.1666 15.7662C85.5933 15.2931 85.8039 14.6252 85.8039 13.7513V7.4118H89.4667Z" fill="#7350FF"/>
<path d="M102.212 17.3135C101.807 17.987 101.209 18.5213 100.422 18.9221C99.6353 19.3228 98.6766 19.5232 97.5517 19.5232C95.8617 19.5232 94.4653 19.1113 93.3736 18.282C92.2764 17.4527 91.6835 16.295 91.5838 14.8089H95.4682C95.5236 15.3822 95.7287 15.833 96.0778 16.1614C96.4269 16.4898 96.8702 16.6568 97.4132 16.6568C97.8842 16.6568 98.25 16.5287 98.5215 16.2727C98.793 16.0167 98.926 15.6716 98.926 15.243C98.926 14.859 98.7985 14.5362 98.5547 14.2801C98.3054 14.0241 97.9951 13.8126 97.6293 13.6456C97.2581 13.4842 96.7483 13.2838 96.0944 13.0556C95.1413 12.7273 94.3655 12.41 93.756 12.1039C93.152 11.7978 92.6311 11.3414 92.1989 10.7347C91.7666 10.128 91.5505 9.33766 91.5505 8.3692C91.5505 7.46753 91.7777 6.68831 92.2321 6.03154C92.6865 5.37477 93.3182 4.87384 94.1217 4.52319C94.9252 4.17254 95.845 4 96.8868 4C98.5658 4 99.8957 4.40074 100.888 5.20222C101.874 6.00371 102.434 7.10018 102.561 8.50278H98.6157C98.5436 8.00185 98.3608 7.60668 98.0726 7.31169C97.7789 7.01669 97.3855 6.87198 96.8868 6.87198C96.4601 6.87198 96.1166 6.98886 95.8506 7.21706C95.5846 7.44527 95.4571 7.77922 95.4571 8.22449C95.4571 8.5807 95.5735 8.88682 95.8118 9.13729C96.0445 9.38775 96.3438 9.58812 96.6984 9.74953C97.053 9.90537 97.5684 10.1057 98.2333 10.3506C99.1975 10.679 99.9899 11.0018 100.599 11.3247C101.209 11.6475 101.735 12.115 102.179 12.7273C102.622 13.3395 102.838 14.141 102.838 15.1261C102.822 15.9054 102.616 16.6401 102.212 17.3135Z" fill="#7350FF"/>
<path d="M111.587 16.2225V19.3728H109.947C108.551 19.3728 107.47 19.0277 106.694 18.332C105.919 17.6418 105.531 16.4953 105.531 14.8923V10.5008H103.929V7.41737H105.531V4.48416H109.177V7.41737H111.565V10.5008H109.177V14.9535C109.177 15.4266 109.271 15.755 109.465 15.9387C109.659 16.1224 109.98 16.217 110.435 16.217H111.587V16.2225Z" fill="#7350FF"/>
<path d="M122.371 8.00177C123.302 8.49713 124.033 9.20399 124.565 10.1335C125.097 11.063 125.363 12.1483 125.363 13.3895C125.363 14.6307 125.097 15.716 124.565 16.6455C124.033 17.575 123.302 18.2819 122.371 18.7773C121.44 19.2726 120.381 19.5175 119.201 19.5175C118.021 19.5175 116.962 19.2726 116.02 18.7773C115.084 18.2819 114.347 17.575 113.815 16.6455C113.283 15.716 113.017 14.6307 113.017 13.3895C113.017 12.1483 113.283 11.063 113.815 10.1335C114.347 9.20399 115.084 8.49713 116.02 8.00177C116.957 7.5064 118.021 7.26151 119.201 7.26151C120.381 7.26151 121.44 7.51197 122.371 8.00177ZM117.444 11.1966C116.968 11.7031 116.73 12.4378 116.73 13.3951C116.73 14.3524 116.968 15.0815 117.444 15.5825C117.921 16.0834 118.508 16.3339 119.207 16.3339C119.905 16.3339 120.487 16.0834 120.958 15.5825C121.429 15.0815 121.661 14.3524 121.661 13.3951C121.661 12.4378 121.429 11.7086 120.958 11.1966C120.487 10.6901 119.905 10.434 119.207 10.434C118.503 10.434 117.921 10.6901 117.444 11.1966Z" fill="#7350FF"/>
<path d="M132.672 7.92941C133.393 7.50084 134.168 7.28934 135.011 7.28934V11.2077H133.963C132.994 11.2077 132.246 11.4136 131.714 11.8311C131.182 12.243 130.916 12.9443 130.916 13.9294V19.3728H127.27V7.41179H130.916V9.66596C131.37 8.93683 131.952 8.35798 132.672 7.92941Z" fill="#7350FF"/>
<path d="M139.294 7.4118L142.153 14.742L144.818 7.4118H148.853L141.427 25.0667H137.415L140.208 18.9164L135.221 7.4118H139.294Z" fill="#7350FF"/>
<g clip-path="url(#clip0)">
<path d="M26.4494 0H33.9364C37.2825 0 39.9954 2.71057 39.9954 6.05375C39.9954 9.39693 37.2825 12.1075 33.9364 12.1075H22.5303C21.3518 12.1075 20.3905 11.1516 20.3905 9.96952V6.04913C20.3905 2.71057 23.1034 0 26.4494 0Z" fill="#7350FF"/>
<path d="M26.4495 25C29.7956 25 32.5084 22.2895 32.5084 18.9463C32.5084 15.6031 29.7956 12.8925 26.4495 12.8925H22.5258C21.3473 12.8925 20.386 13.8484 20.386 15.0305V18.9509C20.3906 22.2895 23.1035 25 26.4495 25Z" fill="#7350FF"/>
<path d="M13.5505 0H6.06355C2.71288 0 0 2.71057 0 6.05375C0 9.39693 2.71288 12.1075 6.05893 12.1075H17.4697C18.6482 12.1075 19.6095 11.1516 19.6095 9.96952V6.04913C19.6095 2.71057 16.8966 0 13.5505 0Z" fill="#7350FF"/>
<path d="M13.5505 25C10.2045 25 7.49158 22.2895 7.49158 18.9463C7.49158 15.6031 10.2045 12.8925 13.5505 12.8925H17.4696C18.6481 12.8925 19.6094 13.8484 19.6094 15.0305V18.9509C19.6094 22.2895 16.8965 25 13.5505 25Z" fill="#7350FF"/>
</g>
<defs>
<clipPath id="clip0">
<rect width="40" height="25" fill="white"/>
</clipPath>
</defs>
</svg>
