<svg width="50" height="50" viewBox="0 0 50 50" fill="none" xmlns="http://www.w3.org/2000/svg">
<rect width="50" height="50" fill="white"/>
<path d="M31.4494 12H38.9364C42.2825 12 44.9954 14.7106 44.9954 18.0537C44.9954 21.3969 42.2825 24.1075 38.9364 24.1075H27.5303C26.3518 24.1075 25.3905 23.1516 25.3905 21.9695V18.0491C25.3905 14.7106 28.1034 12 31.4494 12Z" fill="#7350FF"/>
<path d="M31.4495 37.0001C34.7956 37.0001 37.5084 34.2895 37.5084 30.9463C37.5084 27.6031 34.7956 24.8926 31.4495 24.8926H27.5258C26.3473 24.8926 25.386 25.8484 25.386 27.0306V30.9509C25.3906 34.2895 28.1035 37.0001 31.4495 37.0001Z" fill="#7350FF"/>
<path d="M18.5505 12H11.0635C7.71288 12 5 14.7106 5 18.0537C5 21.3969 7.71288 24.1075 11.0589 24.1075H22.4697C23.6482 24.1075 24.6095 23.1516 24.6095 21.9695V18.0491C24.6095 14.7106 21.8966 12 18.5505 12Z" fill="#7350FF"/>
<path d="M18.5505 37.0001C15.2045 37.0001 12.4916 34.2895 12.4916 30.9463C12.4916 27.6031 15.2045 24.8926 18.5505 24.8926H22.4696C23.6481 24.8926 24.6094 25.8484 24.6094 27.0306V30.9509C24.6094 34.2895 21.8965 37.0001 18.5505 37.0001Z" fill="#7350FF"/>
</svg>
